<?xml version="1.0" encoding="utf-8"?>
<!-- Generator: Adobe Illustrator 23.1.0, SVG Export Plug-In . SVG Version: 6.00 Build 0)  -->
<svg version="1.1" id="Layer_1" xmlns="http://www.w3.org/2000/svg" xmlns:xlink="http://www.w3.org/1999/xlink" x="0px" y="0px"
	 viewBox="0 0 433.77 69.79" style="enable-background:new 0 0 433.77 69.79;" xml:space="preserve">
<g>
	<path d="M56.01,59.89c-0.53,0.46-1.28,0.46-2.27,0c-0.99-0.46-2.06-1.18-3.21-2.17c-1.15-0.99-2.19-2.07-3.11-3.26
		c-0.92-1.18-1.58-2.29-1.97-3.31c-0.4-1.02-0.33-1.76,0.2-2.22c-1.32,0.2-2.39-0.11-3.21-0.94c-0.82-0.82-1.32-1.83-1.48-3.01
		c-0.17-1.18,0-2.29,0.49-3.31c0.49-1.02,1.4-1.63,2.71-1.83c-1.38-0.06-2.39-0.54-3.01-1.43c-0.63-0.89-0.92-1.88-0.89-2.96
		c0.03-1.09,0.43-2.04,1.18-2.86c0.76-0.82,1.79-1.2,3.11-1.14c-1.65-0.46-2.65-1.14-3.01-2.02c-0.36-0.89-0.17-1.6,0.59-2.12
		c0.76-0.53,1.99-0.53,3.7,0c-1.05-0.72-1.68-1.51-1.88-2.37c-0.2-0.85-0.08-1.64,0.35-2.37c0.43-0.72,1.09-1.18,1.97-1.38
		c0.89-0.2,1.86,0.03,2.91,0.69c-0.4-0.66-0.3-1.43,0.3-2.32c0.59-0.89,1.46-1.74,2.62-2.57c1.15-0.82,2.38-1.5,3.7-2.02
		c1.32-0.53,2.5-0.82,3.55-0.89c1.05-0.06,1.78,0.26,2.17,0.99c-0.07-0.99,0.38-1.78,1.33-2.37c0.95-0.59,2.09-0.94,3.41-1.04
		c1.32-0.1,2.48,0.07,3.5,0.49c1.02,0.43,1.6,1.1,1.73,2.02c0.26-1.38,1.05-2.3,2.37-2.76c1.32-0.46,2.73-0.53,4.25-0.2
		c1.51,0.33,2.78,0.97,3.8,1.93c1.02,0.95,1.4,2.12,1.14,3.5c0.72-0.99,1.78-1.35,3.16-1.09c1.38,0.26,2.73,0.89,4.05,1.88
		c1.32,0.99,2.29,2.12,2.91,3.41c0.62,1.28,0.54,2.42-0.25,3.41c0.99,0.07,1.71,0.46,2.17,1.19c0.46,0.73,0.66,1.53,0.59,2.42
		c-0.07,0.89-0.36,1.66-0.89,2.32c-0.53,0.66-1.28,0.96-2.27,0.89c0,0.86-0.43,1.5-1.28,1.92c-0.86,0.43-1.86,0.64-3.01,0.64
		c-1.15,0-2.16-0.21-3.01-0.64c-0.86-0.43-1.28-1.07-1.28-1.92c-0.33,0.79-1.04,1.23-2.12,1.33c-1.09,0.1-2.32-0.05-3.7-0.44
		c-1.38-0.39-2.68-0.92-3.9-1.58c-1.22-0.66-2.12-1.38-2.71-2.17c-0.2,1.05-0.86,1.96-1.97,2.71c-1.12,0.76-2.24,1.07-3.36,0.94
		c0.46,0.73,0.66,1.61,0.59,2.67c-0.07,1.05-0.33,2.01-0.79,2.86c-0.46,0.86-1.12,1.35-1.97,1.48c1.45,0,2.48,0.56,3.11,1.68
		c0.63,1.12,0.77,2.24,0.44,3.36c1.12-0.13,2.2,0.08,3.26,0.64c1.05,0.56,1.81,1.33,2.27,2.32c0.59-1.05,1.56-1.79,2.91-2.22
		c1.35-0.43,2.42-0.08,3.21,1.04c0-0.92,0.38-1.63,1.14-2.12c0.76-0.49,1.63-0.74,2.62-0.74s1.84,0.25,2.57,0.74
		c0.72,0.49,1.09,1.2,1.09,2.12c0-0.79,0.41-1.4,1.23-1.83c0.82-0.43,1.74-0.64,2.76-0.64c1.02,0,1.93,0.21,2.71,0.64
		c0.79,0.43,1.19,1.04,1.19,1.83c0.79,0.2,1.27,0.71,1.43,1.53c0.16,0.82,0.11,1.73-0.15,2.71c-0.26,0.99-0.68,1.79-1.23,2.42
		c-0.56,0.63-1.23,0.81-2.02,0.54c0.59,0.86,0.53,1.86-0.2,3.01c-0.73,1.15-1.76,2.22-3.11,3.21c-1.35,0.99-2.68,1.65-4,1.97
		c-1.32,0.33-2.27,0.1-2.86-0.69c0.13,0.99-0.48,1.83-1.83,2.52c-1.35,0.69-3.27,1.1-5.78,1.23c-2.5,0.13-5.38-0.13-8.64-0.79
		C62.87,62.69,59.5,61.54,56.01,59.89z"/>
	<path d="M106.95,56.73c-0.73,0-1.33-0.44-1.83-1.33c-0.49-0.89-0.84-2.02-1.04-3.41c-0.2-1.38-0.25-2.76-0.15-4.15
		c0.1-1.38,0.35-2.55,0.74-3.5c0.39-0.95,0.99-1.43,1.78-1.43c-0.33-0.59-0.17-1.32,0.49-2.17c0.66-0.85,1.6-1.69,2.81-2.52
		c1.22-0.82,2.5-1.53,3.85-2.12c1.35-0.59,2.55-0.95,3.6-1.09c1.05-0.13,1.74,0.1,2.07,0.69c-0.13-0.85,0.18-1.61,0.94-2.27
		c0.76-0.66,1.73-1.15,2.91-1.48c1.18-0.33,2.35-0.46,3.5-0.39c1.15,0.07,2.06,0.39,2.72,0.99c-0.26-1.05,0.06-2.2,0.99-3.46
		c-1.65-0.06-3.16-0.35-4.54-0.84s-2.04-1.17-1.97-2.02c0,0.99-0.4,1.71-1.18,2.17c-0.79,0.46-1.7,0.69-2.72,0.69
		c-1.02,0-1.92-0.23-2.71-0.69c-0.79-0.46-1.18-1.19-1.18-2.17c-0.59,0.99-1.35,1.55-2.27,1.68c-0.92,0.13-1.83-0.05-2.71-0.54
		c-0.89-0.49-1.53-1.18-1.93-2.07c-0.39-0.89-0.3-1.83,0.3-2.81c-1.12-1.25-1.53-2.38-1.23-3.41c0.3-1.02,0.97-1.63,2.02-1.83
		c1.05-0.2,2.14,0.33,3.26,1.58c-0.79-1.51-0.99-2.7-0.59-3.55c0.39-0.85,1.04-1.2,1.92-1.04c0.89,0.17,1.73,1.04,2.52,2.62
		c-0.26-1.05-0.12-1.96,0.44-2.71c0.56-0.76,1.32-1.27,2.27-1.53c0.95-0.26,1.88-0.23,2.76,0.1c0.89,0.33,1.46,1.02,1.73,2.07
		c-0.07-1.32,0.36-2.32,1.28-3.01c0.92-0.69,2.01-1.07,3.26-1.14c1.25-0.06,2.37,0.2,3.36,0.79c0.99,0.59,1.51,1.55,1.58,2.86
		c0.13-1.78,0.59-2.93,1.38-3.46c0.79-0.53,1.51-0.46,2.17,0.2c0.66,0.66,0.92,1.88,0.79,3.65c0.33-1.19,0.95-1.96,1.88-2.32
		c0.92-0.36,1.89-0.4,2.91-0.1c1.02,0.3,1.83,0.86,2.42,1.68c0.59,0.82,0.72,1.79,0.4,2.91c0.72-0.92,1.58-1.37,2.57-1.33
		c0.99,0.03,1.89,0.36,2.71,0.99c0.82,0.63,1.35,1.43,1.58,2.42c0.23,0.99-0.02,1.94-0.74,2.86c1.58-0.72,2.86-0.72,3.85,0
		c0.99,0.72,1.41,1.68,1.28,2.86c-0.13,1.19-0.99,2.14-2.57,2.86c1.32-0.06,2.32,0.51,3.01,1.73c0.69,1.22,1.09,2.62,1.18,4.2
		s-0.15,3.01-0.74,4.29c-0.59,1.28-1.55,1.96-2.86,2.02c1.05,0,1.84,0.41,2.37,1.23c0.53,0.82,0.79,1.78,0.79,2.86
		s-0.26,2.04-0.79,2.86c-0.53,0.82-1.32,1.23-2.37,1.23c1.19,0,2.14,0.44,2.86,1.33c0.72,0.89,1.23,2.01,1.53,3.36
		c0.3,1.35,0.35,2.71,0.15,4.1c-0.2,1.38-0.63,2.55-1.28,3.5c-0.66,0.95-1.55,1.47-2.67,1.53c-0.07,1.05-0.58,1.91-1.53,2.57
		c-0.95,0.66-2.12,1.09-3.5,1.28c-1.38,0.2-2.78,0.18-4.2-0.05c-1.42-0.23-2.58-0.69-3.5-1.38c-0.92-0.69-1.38-1.56-1.38-2.62
		c0,1.65-0.36,2.76-1.09,3.36c-0.73,0.59-1.45,0.61-2.17,0.05c-0.72-0.56-1.09-1.69-1.09-3.41c-0.86,1.05-1.74,1.61-2.67,1.68
		c-0.92,0.07-1.7-0.2-2.32-0.79c-0.63-0.59-0.91-1.32-0.84-2.17c-1.05,0.86-2.75,1.45-5.08,1.78c-2.34,0.33-5.18,0.12-8.54-0.64
		C114.55,60.67,110.9,59.1,106.95,56.73z M132.23,51.9c-0.59-0.33-0.82-0.92-0.69-1.78c0.13-0.85,0.44-1.78,0.94-2.76
		c0.49-0.99,1.07-1.81,1.73-2.47c-0.59-0.13-1.14-0.43-1.63-0.89c-0.49-0.46-0.81-0.99-0.94-1.58c-0.46,0.66-1.15,1.2-2.07,1.63
		c-0.92,0.43-1.86,0.68-2.81,0.74c-0.96,0.07-1.73-0.1-2.32-0.49c0.2,0.59,0.06,1.12-0.4,1.58c0.92,0.33,1.93,0.92,3.01,1.78
		c1.09,0.86,2.09,1.71,3.01,2.57C130.98,51.07,131.7,51.63,132.23,51.9z"/>
	<path d="M168.56,54.66c-1.05,0-1.91-0.46-2.57-1.38c-0.66-0.92-1.09-2.06-1.28-3.41c-0.2-1.35-0.2-2.71,0-4.1
		c0.2-1.38,0.62-2.53,1.28-3.46c0.66-0.92,1.51-1.38,2.57-1.38c-1.38,0-2.4-0.49-3.06-1.48c-0.66-0.99-0.99-2.14-0.99-3.46
		c0-1.32,0.33-2.47,0.99-3.46c0.66-0.99,1.68-1.48,3.06-1.48c-1.32,0-2.3-0.59-2.96-1.78c-0.66-1.18-0.99-2.55-0.99-4.1
		c0-1.55,0.33-2.91,0.99-4.1c0.66-1.18,1.64-1.78,2.96-1.78c-1.38,0-2.32-0.33-2.81-0.99c-0.49-0.66-0.49-1.32,0-1.97
		c0.49-0.66,1.43-0.99,2.81-0.99c0-0.99,0.51-1.74,1.53-2.27c1.02-0.53,2.22-0.79,3.6-0.79c1.38,0,2.6,0.23,3.65,0.69
		c1.05,0.46,1.58,1.19,1.58,2.17c0.33-1.19,0.9-2.02,1.73-2.52c0.82-0.49,1.69-0.66,2.62-0.49c0.92,0.17,1.69,0.59,2.32,1.28
		c0.62,0.69,0.87,1.6,0.74,2.72c0.26-0.79,0.94-1.38,2.02-1.78s2.27-0.58,3.55-0.54c1.28,0.03,2.4,0.28,3.36,0.74
		c0.95,0.46,1.46,1.15,1.53,2.07c-0.2-1.45,0.31-2.6,1.53-3.46c1.22-0.85,2.67-1.4,4.34-1.63c1.68-0.23,3.21-0.06,4.59,0.49
		c1.38,0.56,2.17,1.53,2.37,2.91c1.25,0.07,2.15,0.73,2.71,1.97c0.56,1.25,0.79,2.68,0.69,4.29c-0.1,1.61-0.48,3.03-1.14,4.25
		c-0.66,1.22-1.61,1.79-2.86,1.73c1.05,0.92,1.48,1.84,1.28,2.76c-0.2,0.92-0.74,1.55-1.63,1.88c-0.89,0.33-1.86,0.03-2.91-0.89
		c0,0.99-0.46,1.78-1.38,2.37c-0.92,0.59-2.06,0.97-3.41,1.14c-1.35,0.17-2.65,0.12-3.9-0.15c-1.25-0.26-2.21-0.76-2.86-1.48
		c0.2,0.99-0.08,1.83-0.84,2.52c-0.76,0.69-1.6,0.94-2.52,0.74c0.59,1.05,0.85,2.42,0.79,4.1c-0.07,1.68-0.44,3.16-1.14,4.44
		c-0.69,1.28-1.63,1.89-2.81,1.83c1.12,0,1.97,0.4,2.57,1.18c0.59,0.79,0.89,1.7,0.89,2.71c0,1.02-0.3,1.93-0.89,2.72
		c-0.59,0.79-1.45,1.18-2.57,1.18c0.99,0.33,1.63,0.94,1.93,1.83c0.3,0.89,0.3,1.81,0,2.76c-0.3,0.95-0.81,1.73-1.53,2.32
		c-0.73,0.59-1.58,0.73-2.57,0.4c0,1.25-0.56,2.19-1.68,2.81c-1.12,0.62-2.44,0.94-3.95,0.94c-1.52,0-2.85-0.31-4-0.94
		c-1.15-0.63-1.73-1.56-1.73-2.81c0,1.25-0.26,2.16-0.79,2.71c-0.53,0.56-1.17,0.64-1.93,0.25c-0.76-0.4-1.42-1.38-1.97-2.96
		C168.94,59.99,168.62,57.69,168.56,54.66z"/>
	<path d="M238.26,62.26c-0.4,1.38-1.12,2.29-2.17,2.71c-1.05,0.43-2.16,0.49-3.31,0.2c-1.15-0.3-2.09-0.91-2.81-1.83
		c-0.73-0.92-0.89-2.07-0.49-3.46c-0.72,0.99-1.58,1.53-2.57,1.63s-1.89-0.15-2.71-0.74c-0.82-0.59-1.35-1.37-1.58-2.32
		c-0.23-0.95,0.05-1.96,0.84-3.01c-0.99,0.46-1.97,0.25-2.96-0.64c-0.99-0.89-1.81-2.07-2.47-3.55c-0.66-1.48-0.99-2.88-0.99-4.2
		c0-1.32,0.49-2.2,1.48-2.67c-1.19,0-2.07-0.56-2.67-1.68c-0.59-1.12-0.89-2.43-0.89-3.95c0-1.51,0.3-2.83,0.89-3.95
		c0.59-1.12,1.45-1.68,2.57-1.68c-1.78-0.53-2.83-1.32-3.16-2.37c-0.33-1.05-0.08-1.94,0.74-2.67c0.82-0.72,2.12-0.82,3.9-0.3
		c-0.59-0.53-0.77-1.3-0.54-2.32c0.23-1.02,0.74-2.09,1.53-3.21c0.79-1.12,1.68-2.12,2.67-3.01c0.99-0.89,1.96-1.53,2.91-1.93
		c0.95-0.4,1.73-0.33,2.32,0.2c-0.33-1.12-0.02-2.11,0.94-2.96c0.95-0.85,2.16-1.5,3.6-1.93c1.45-0.43,2.8-0.53,4.05-0.3
		c1.25,0.23,2.04,0.91,2.37,2.02c0.07-1.25,0.81-2.12,2.22-2.62c1.41-0.49,2.99-0.67,4.74-0.54c1.74,0.13,3.27,0.56,4.59,1.28
		c1.32,0.72,1.91,1.71,1.78,2.96c0.53-1.25,1.27-1.92,2.22-2.02c0.95-0.1,1.74,0.21,2.37,0.94c0.63,0.73,0.71,1.71,0.25,2.96
		c0.72-0.72,1.69-0.84,2.91-0.35c1.22,0.49,2.4,1.3,3.55,2.42c1.15,1.12,1.97,2.3,2.47,3.55c0.49,1.25,0.38,2.24-0.35,2.96
		c0.99-0.2,1.89,0.13,2.72,0.99c0.82,0.86,1.48,1.97,1.97,3.36c0.49,1.38,0.77,2.81,0.84,4.29c0.06,1.48-0.1,2.78-0.49,3.9
		c-0.39,1.12-1.12,1.78-2.17,1.97c1.91,0.86,2.76,1.5,2.57,1.93c-0.2,0.43-1.25,0.21-3.16-0.64c0,0.86-0.54,1.5-1.63,1.93
		c-1.09,0.43-2.32,0.64-3.7,0.64c-1.38,0-2.62-0.21-3.7-0.64c-1.09-0.43-1.63-1.07-1.63-1.93c0,1.12-0.49,1.96-1.48,2.52
		c-0.99,0.56-2.12,0.86-3.41,0.89c-1.28,0.03-2.42-0.23-3.41-0.79c-0.99-0.56-1.48-1.37-1.48-2.42c0.06,1.12-0.48,2.02-1.63,2.71
		c-1.15,0.69-2.45,1.1-3.9,1.23c0.66,0.79,1.2,1.63,1.63,2.52c0.43,0.89,0.71,1.7,0.84,2.42c0.66-0.72,1.64-1.35,2.96-1.88
		c1.32-0.53,2.67-0.85,4.05-0.99c1.38-0.13,2.62-0.05,3.7,0.25c1.09,0.3,1.73,0.91,1.92,1.83c0-1.12,0.44-1.97,1.33-2.57
		s1.92-0.89,3.11-0.89s2.22,0.3,3.11,0.89s1.33,1.45,1.33,2.57c1.32,0.26,2.11,0.81,2.37,1.63c0.26,0.82,0.1,1.55-0.49,2.17
		c-0.59,0.63-1.51,0.81-2.76,0.54c0.59,0.86,0.69,1.73,0.3,2.62c-0.39,0.89-1.04,1.65-1.92,2.27c-0.89,0.63-1.81,0.97-2.76,1.04
		c-0.96,0.07-1.73-0.3-2.32-1.09c0.4,1.25,0.21,2.34-0.54,3.26c-0.76,0.92-1.76,1.58-3.01,1.97c-1.25,0.4-2.45,0.41-3.6,0.05
		c-1.15-0.36-1.93-1.17-2.32-2.42c0.13,1.78-0.35,2.99-1.43,3.65c-1.09,0.66-2.53,0.71-4.34,0.15
		C242.12,65.31,240.23,64.11,238.26,62.26z M242.31,34.32c0-1.32,0.36-2.06,1.09-2.22c0.72-0.16,1.22,0.25,1.48,1.23
		c0.2-0.59,0.59-1.15,1.18-1.68c0.59-0.53,1.22-0.89,1.88-1.09c-0.79-0.59-1.45-1.45-1.97-2.57c-0.53-1.12-0.69-2.11-0.49-2.96
		c-0.59,0.33-1.3,0.53-2.12,0.59c-0.82,0.07-1.53-0.03-2.12-0.3c0.2,0.72,0.16,1.58-0.1,2.57c-0.26,0.99-0.68,1.88-1.23,2.67
		c-0.56,0.79-1.2,1.22-1.92,1.28c0.85,0.2,1.5,0.66,1.92,1.38C240.31,33.96,241.12,34.32,242.31,34.32z"/>
	<path d="M299.76,62.26c-0.4,1.38-1.12,2.29-2.17,2.71c-1.05,0.43-2.16,0.49-3.31,0.2c-1.15-0.3-2.09-0.91-2.81-1.83
		c-0.73-0.92-0.89-2.07-0.49-3.46c-0.72,0.99-1.58,1.53-2.57,1.63s-1.89-0.15-2.71-0.74c-0.82-0.59-1.35-1.37-1.58-2.32
		c-0.23-0.95,0.05-1.96,0.84-3.01c-0.99,0.46-1.97,0.25-2.96-0.64c-0.99-0.89-1.81-2.07-2.47-3.55c-0.66-1.48-0.99-2.88-0.99-4.2
		c0-1.32,0.49-2.2,1.48-2.67c-1.19,0-2.07-0.56-2.67-1.68c-0.59-1.12-0.89-2.43-0.89-3.95c0-1.51,0.3-2.83,0.89-3.95
		c0.59-1.12,1.45-1.68,2.57-1.68c-1.78-0.53-2.83-1.32-3.16-2.37c-0.33-1.05-0.08-1.94,0.74-2.67c0.82-0.72,2.12-0.82,3.9-0.3
		c-0.59-0.53-0.77-1.3-0.54-2.32c0.23-1.02,0.74-2.09,1.53-3.21c0.79-1.12,1.68-2.12,2.67-3.01c0.99-0.89,1.96-1.53,2.91-1.93
		c0.95-0.4,1.73-0.33,2.32,0.2c-0.33-1.12-0.02-2.11,0.94-2.96c0.95-0.85,2.16-1.5,3.6-1.93c1.45-0.43,2.8-0.53,4.05-0.3
		c1.25,0.23,2.04,0.91,2.37,2.02c0.07-1.25,0.81-2.12,2.22-2.62c1.41-0.49,2.99-0.67,4.74-0.54c1.74,0.13,3.27,0.56,4.59,1.28
		c1.32,0.72,1.91,1.71,1.78,2.96c0.53-1.25,1.27-1.92,2.22-2.02c0.95-0.1,1.74,0.21,2.37,0.94c0.63,0.73,0.71,1.71,0.25,2.96
		c0.72-0.72,1.69-0.84,2.91-0.35c1.22,0.49,2.4,1.3,3.55,2.42c1.15,1.12,1.97,2.3,2.47,3.55c0.49,1.25,0.38,2.24-0.35,2.96
		c0.99-0.2,1.89,0.13,2.72,0.99c0.82,0.86,1.48,1.97,1.97,3.36c0.49,1.38,0.77,2.81,0.84,4.29c0.06,1.48-0.1,2.78-0.49,3.9
		c-0.39,1.12-1.12,1.78-2.17,1.97c1.91,0.86,2.76,1.5,2.57,1.93c-0.2,0.43-1.25,0.21-3.16-0.64c0,0.86-0.54,1.5-1.63,1.93
		c-1.09,0.43-2.32,0.64-3.7,0.64c-1.38,0-2.62-0.21-3.7-0.64c-1.09-0.43-1.63-1.07-1.63-1.93c0,1.12-0.49,1.96-1.48,2.52
		c-0.99,0.56-2.12,0.86-3.41,0.89c-1.28,0.03-2.42-0.23-3.41-0.79c-0.99-0.56-1.48-1.37-1.48-2.42c0.06,1.12-0.48,2.02-1.63,2.71
		c-1.15,0.69-2.45,1.1-3.9,1.23c0.66,0.79,1.2,1.63,1.63,2.52c0.43,0.89,0.71,1.7,0.84,2.42c0.66-0.72,1.64-1.35,2.96-1.88
		c1.32-0.53,2.67-0.85,4.05-0.99c1.38-0.13,2.62-0.05,3.7,0.25c1.09,0.3,1.73,0.91,1.92,1.83c0-1.12,0.44-1.97,1.33-2.57
		s1.92-0.89,3.11-0.89s2.22,0.3,3.11,0.89s1.33,1.45,1.33,2.57c1.32,0.26,2.11,0.81,2.37,1.63c0.26,0.82,0.1,1.55-0.49,2.17
		c-0.59,0.63-1.51,0.81-2.76,0.54c0.59,0.86,0.69,1.73,0.3,2.62c-0.39,0.89-1.04,1.65-1.92,2.27c-0.89,0.63-1.81,0.97-2.76,1.04
		c-0.96,0.07-1.73-0.3-2.32-1.09c0.4,1.25,0.21,2.34-0.54,3.26c-0.76,0.92-1.76,1.58-3.01,1.97c-1.25,0.4-2.45,0.41-3.6,0.05
		c-1.15-0.36-1.93-1.17-2.32-2.42c0.13,1.78-0.35,2.99-1.43,3.65c-1.09,0.66-2.53,0.71-4.34,0.15
		C303.63,65.31,301.74,64.11,299.76,62.26z M303.81,34.32c0-1.32,0.36-2.06,1.09-2.22c0.72-0.16,1.22,0.25,1.48,1.23
		c0.2-0.59,0.59-1.15,1.18-1.68c0.59-0.53,1.22-0.89,1.88-1.09c-0.79-0.59-1.45-1.45-1.97-2.57c-0.53-1.12-0.69-2.11-0.49-2.96
		c-0.59,0.33-1.3,0.53-2.12,0.59c-0.82,0.07-1.53-0.03-2.12-0.3c0.2,0.72,0.16,1.58-0.1,2.57c-0.26,0.99-0.68,1.88-1.23,2.67
		c-0.56,0.79-1.2,1.22-1.92,1.28c0.85,0.2,1.5,0.66,1.92,1.38C301.82,33.96,302.63,34.32,303.81,34.32z"/>
	<path d="M342.71,54.66c-1.05,0-1.91-0.46-2.57-1.38c-0.66-0.92-1.09-2.06-1.28-3.41c-0.2-1.35-0.2-2.71,0-4.1
		c0.2-1.38,0.63-2.53,1.28-3.46c0.66-0.92,1.51-1.38,2.57-1.38c-1.38,0-2.4-0.49-3.06-1.48c-0.66-0.99-0.99-2.14-0.99-3.46
		c0-1.32,0.33-2.47,0.99-3.46c0.66-0.99,1.68-1.48,3.06-1.48c-1.32,0-2.3-0.59-2.96-1.78c-0.66-1.18-0.99-2.55-0.99-4.1
		c0-1.55,0.33-2.91,0.99-4.1c0.66-1.18,1.64-1.78,2.96-1.78c-1.38,0-2.32-0.33-2.81-0.99c-0.49-0.66-0.49-1.32,0-1.97
		c0.49-0.66,1.43-0.99,2.81-0.99c0-0.99,0.51-1.74,1.53-2.27c1.02-0.53,2.22-0.79,3.6-0.79c1.38,0,2.6,0.23,3.65,0.69
		c1.05,0.46,1.58,1.19,1.58,2.17c0.33-1.19,0.9-2.02,1.73-2.52c0.82-0.49,1.69-0.66,2.62-0.49c0.92,0.17,1.69,0.59,2.32,1.28
		c0.63,0.69,0.87,1.6,0.74,2.72c0.26-0.79,0.94-1.38,2.02-1.78c1.09-0.4,2.27-0.58,3.55-0.54c1.28,0.03,2.4,0.28,3.36,0.74
		c0.95,0.46,1.46,1.15,1.53,2.07c-0.2-1.45,0.31-2.6,1.53-3.46c1.22-0.85,2.67-1.4,4.34-1.63c1.68-0.23,3.21-0.06,4.59,0.49
		c1.38,0.56,2.17,1.53,2.37,2.91c1.25,0.07,2.16,0.73,2.71,1.97c0.56,1.25,0.79,2.68,0.69,4.29c-0.1,1.61-0.48,3.03-1.14,4.25
		c-0.66,1.22-1.61,1.79-2.86,1.73c1.05,0.92,1.48,1.84,1.28,2.76c-0.2,0.92-0.74,1.55-1.63,1.88c-0.89,0.33-1.86,0.03-2.91-0.89
		c0,0.99-0.46,1.78-1.38,2.37c-0.92,0.59-2.06,0.97-3.41,1.14c-1.35,0.17-2.65,0.12-3.9-0.15c-1.25-0.26-2.21-0.76-2.86-1.48
		c0.2,0.99-0.08,1.83-0.84,2.52c-0.76,0.69-1.6,0.94-2.52,0.74c0.59,1.05,0.86,2.42,0.79,4.1c-0.07,1.68-0.44,3.16-1.13,4.44
		c-0.69,1.28-1.63,1.89-2.81,1.83c1.12,0,1.97,0.4,2.57,1.18c0.59,0.79,0.89,1.7,0.89,2.71c0,1.02-0.3,1.93-0.89,2.72
		c-0.59,0.79-1.45,1.18-2.57,1.18c0.99,0.33,1.63,0.94,1.93,1.83c0.3,0.89,0.3,1.81,0,2.76c-0.3,0.95-0.81,1.73-1.53,2.32
		c-0.73,0.59-1.58,0.73-2.57,0.4c0,1.25-0.56,2.19-1.68,2.81c-1.12,0.62-2.44,0.94-3.95,0.94c-1.51,0-2.85-0.31-4-0.94
		c-1.15-0.63-1.73-1.56-1.73-2.81c0,1.25-0.26,2.16-0.79,2.71c-0.53,0.56-1.17,0.64-1.92,0.25c-0.76-0.4-1.42-1.38-1.97-2.96
		C343.09,59.99,342.77,57.69,342.71,54.66z"/>
</g>
</svg>
